<svg width="30" height="30" viewBox="0 0 38 30" fill="none" xmlns="http://www.w3.org/2000/svg">
<path d="M35.4497 0.716064H34.9377H34.2414H33.5452H28.2313H8.70522H6.14486H3.98877H3.58899H2.25042C1.54071 0.716064 0.907355 1.04139 0.494104 1.55389C0.305446 1.79009 0.161707 2.06194 0.0808534 2.36052C0.031443 2.5477 0 2.74378 0 2.94433V3.21172V5.75194V27.7716C0 29.0016 1.00618 29.9999 2.24593 29.9999H35.4452C36.685 29.9999 37.6912 29.0016 37.6912 27.7716V21.5548H24.3638C22.2572 21.5548 20.5458 19.8568 20.5458 17.7667V15.7256V15.0349V14.3441V12.8111C20.5458 11.7861 20.959 10.8547 21.6283 10.1728C22.2212 9.56673 23.0163 9.15673 23.9057 9.05423C24.0539 9.0364 24.2066 9.02749 24.3593 9.02749H35.8226H36.5188H37.215H37.6912V2.94433C37.6957 1.71433 36.6895 0.716064 35.4497 0.716064Z" fill="#4A56E2"/>
</svg>
